<?xml version="1.0" encoding="UTF-8"?>
<svg id="Camada_1" data-name="Camada 1" xmlns="http://www.w3.org/2000/svg" viewBox="0 0 1080 572.7">
  <defs>
    <style>
      .cls-1 {
        fill: #2b3357;
      }
    </style>
  </defs>
  <path class="cls-1" d="M486.56,189.36c.88,45.51,28.26,87.83,70.17,105.75,68.21,29.17,146.87-13.67,158.67-86.6,17.08-105.64-105.07-176.6-187-107.42,25.38,22.07,41.72,54.1,40.41,88.28h-32.36c1.07-73.72-91.72-111.4-142.26-56.61-56.32,61.01,4.93,159.23,80.98,136.17,1.52-.46,2.38.88,1.94-2.05-15.39-22.7-22.42-50.2-22.91-77.51h32.36ZM590.12,41.53c120.95-9.74,201.48,124,136.49,226.7-50.47,79.77-158.79,91.56-227.53,27.82-64.19,24.72-137.81-9.16-155.35-76.45-24.48-94.01,65.8-171.9,155.46-136.96,24.82-23.19,56.77-38.36,90.93-41.11"/>
  <path class="cls-1" d="M479.82,429.25h17.54l.66,8.08c10.26-14.18,36.47-15.11,42.5,2.7h1.99c10.1-17.21,39.32-18.53,48.13.41.71,1.52,3.79,10.26,3.79,11.05v51.87h-17.52v-47.83c0-1.85-4.07-8.73-6.05-10.13-9.9-7.12-24.97,1.7-24.97,12.82v45.15h-17.52v-47.83c0-6.74-8.65-13.21-15.49-12.9-6.98.33-15.53,9.28-15.53,15.58v45.15h-17.52v-74.12Z"/>
  <path class="cls-1" d="M871.86,443.05c-26.99,4.39-22.46,50.37,7.64,46.74,28.86-3.5,25.12-52.05-7.64-46.74M837.15,429.25h17.54v9.44c30.39-30.99,73.03,3.27,59.96,41.74-8.82,25.95-41.56,34.73-59.97,13.51v37.73h-17.52v-102.42Z"/>
  <path class="cls-1" d="M684.78,400.95v36.39c12.04-13.06,35.46-15.28,46.43.08,2.02,2.84,6.16,12.38,6.16,15.42v50.53h-17.52v-46.49c0-7.59-10.97-14.55-18.19-14.24-7.4.33-16.88,9.68-16.88,16.94v43.79h-17.52v-102.42h17.52Z"/>
  <path class="cls-1" d="M452.86,458.91c-3.54-23.88-36.37-23.27-40.46,0h40.46ZM470.38,471.03h-57.98c1.69,21.86,30.29,27.22,41.09,8.24l14.18,7.25c-18.26,31.87-69.19,22.43-72.77-14.82-5.64-58.66,80.16-60.1,75.49-.66"/>
  <path class="cls-1" d="M782.87,443.04c-31.97,5.11-18.71,58.91,13.39,44.39,22.78-10.31,13.59-48.72-13.39-44.39M781.53,426.91c47.33-6.11,62.58,59.8,20.54,75.77-57.68,21.91-78.28-68.31-20.54-75.77"/>
  <path class="cls-1" d="M233.06,503.37h-17.52v-46.49c0-7.59-10.99-14.55-18.19-14.24-7.42.32-16.88,9.68-16.88,16.92v43.81h-17.54v-74.12l17.54-.02.66,8.08c11.26-13.65,35.19-14.73,45.76.09,2.02,2.84,6.16,12.38,6.16,15.42v50.53Z"/>
  <path class="cls-1" d="M264.07,429.25v49.19c0,5.54,10.04,11.46,15.5,11.48,5.67.02,15.52-7.8,15.52-12.82v-47.85h17.52v50.53c0,1.85-4.25,11.18-5.62,13.26-11.7,17.73-45.09,16.64-56.18-1.34-1.06-1.7-4.26-9.2-4.26-10.56v-51.89h17.52Z"/>
  <path class="cls-1" d="M657.81,444.05l-14.02,6.66c-3.05-9.01-20.81-14.32-22.43-3.19-1.34,9.27,17.11,11,24.17,14.9,27.8,15.39,7.01,51.53-25.49,41.64-5.32-1.61-17.66-10.4-17.52-16.24.11-3.95,9.9-6.03,12.85-8.54,4.67,7.96,14.97,16.53,23.66,8.68,12.19-10.97-15.85-15.88-21.72-18.9-18.97-9.77-16.46-34.63,3.8-40.79,15.25-4.63,29.46,1.89,36.7,15.77"/>
  <path class="cls-1" d="M355.78,479.11c2,1.93,2.32-.51,2.98-1.72,7.32-13.23,11.03-32.84,17.89-46.79l18.22-1.34-31.64,74.21-14.89-1.44-28.98-72.77,18.23,1.29,18.19,48.56Z"/>
</svg>