<?xml version="1.0" encoding="UTF-8"?>
<svg id="Camada_1" data-name="Camada 1" xmlns="http://www.w3.org/2000/svg" viewBox="0 0 1080 572.7">
  <defs>
    <style>
      .cls-1 {
        fill: #e84e1d;
      }
    </style>
  </defs>
  <path d="M449.58,316.27c0,9.91-9.97,17.92-22.28,17.92s-22.28-8-22.28-17.92v-90.9h-43.9v92.63c0,29.38,29.62,53.21,66.18,53.21s66.17-23.83,66.17-53.21v-92.63h-43.9v90.9ZM985.07,367.99h45.39v-142.62h-45.39v142.62ZM910.89,221.19c-19.47,0-33.39,8.6-43.12,21.38l-5.73-17.2h-38.64v184.01h45.39v-56.14h.54c8.9,12,21.98,19.23,40.37,19.23,37.33,0,62.11-29.5,62.11-75.79.06-42.88-23.05-75.49-60.92-75.49ZM898.05,337.35c-19.47,0-30.64-15.89-30.64-39s10.03-40.67,29.8-40.67,28.67,16.19,28.67,40.67c.06,24.25-10.57,39-27.83,39ZM624.57,233.19c-10.33-7.82-24.78-11.71-46.23-11.71-43.18,0-63.49,22.58-64.62,49.03h41.81c1.37-12,8.66-18.4,23.11-18.4,13.68,0,19.47,6.15,19.47,15.35,0,9.73-9.5,12.54-36.19,15.89-29.5,3.88-54.59,13.38-54.59,44.85,0,28.13,20.31,43.48,48.74,43.48,21.44,0,33.98-7.53,42.34-19.47l5.31,15.89h39v-94.13c-.06-17.98-5.91-31.89-18.16-40.79ZM599.19,317.05c0,15.35-11.71,25.62-28.67,25.62-11.17,0-19.47-4.48-19.47-15.89s7.23-15.35,24.78-19.23c9.2-2.21,17.56-4.48,23.41-7.53v17.02h-.06ZM985.07,163.32v41.39h45.39v-41.39h-45.39ZM749.22,221.19c-19.47,0-33.39,8.6-43.12,21.38l-5.73-17.2h-38.64v184.01h45.39v-56.14h.54c8.9,12,21.98,19.23,40.37,19.23,37.33,0,62.11-29.5,62.11-75.79.06-42.88-23.05-75.49-60.92-75.49ZM736.43,337.35c-19.47,0-30.64-15.89-30.64-39s10.03-40.67,29.8-40.67,28.67,16.19,28.67,40.67-10.57,39-27.83,39ZM137.1,367.99h68.21v-136.47h-68.21v136.47ZM224.71,280.5h68.21v-117.18h-68.21v117.18ZM49.54,367.99h68.21v-68.21H49.54v68.21Z"/>
  <path class="cls-1" d="M292.92,299.78h-68.21v68.21h68.21v-68.21Z"/>
</svg>