<?xml version="1.0" encoding="UTF-8"?>
<svg id="Camada_1" data-name="Camada 1" xmlns="http://www.w3.org/2000/svg" viewBox="0 0 1080 572.7">
  <g>
    <path d="M147.96,184.16l1.8,1.2c12.67,43.8,21.58,88.83,33.72,132.82.55,2,1.07,4.77,2.51,1.24l31.65-131.92c.36-1.9,1.09-2.42,2.63-3.34h31.06l1.99,1.33,34.51,134.37.99,1.66.89-1.31,33.48-134.52,1.79-1.53h30.61c2.21,1.34,1.95,2.56,1.57,4.88-17.83,63.46-31.23,128.29-49.26,191.68-.86,3.01-1.12,7.66-4.87,7.96-9.01-.64-19.11.82-27.98.01-1.7-.15-3.29-.58-3.91-2.27l-34.46-139.74c-1.29-3.78-2.57,3.02-2.87,4.17-11.48,44.57-20.43,89.86-31.74,134.48-.5,2.48-1.7,3.14-4.16,3.36-8.43.76-18.05-.59-26.62-.05-1.43-.22-2.59-1.33-3.13-2.62l-53.76-199.37,1.63-2.49h31.94Z"/>
    <g>
      <path d="M728.26,184.16l.7.41c32.23,1.82,59.07,22.41,60.98,55.89,1.71,29.91-1.33,61.4,0,91.47-1.89,35.4-29.97,55.03-63.67,56.76-25.63,1.31-52.37-1.04-78.12,0-1.79.03-3.54-.86-3.33-2.87v-198.82c-.05-1.49,1.36-1.95,2.24-2.85h81.19ZM679.02,359.08c.81.2,1.56.4,2.42.46,11.73.92,30.78.75,42.61-.03,18.76-1.23,30.65-15.62,31.75-33.76-1.48-26.21,1.9-54.44-.03-80.41-1.37-18.39-14.73-31.05-33.03-32.05-11.77-.65-29.69-.91-41.3,0-.85.07-1.61.26-2.42.46v145.32Z"/>
      <g>
        <path d="M546.81,184.16c33.73,2.28,60.02,23.27,61.69,58.07,1.39,29.06-1.09,59.2,0,88.38-1.1,35.93-29.56,56.34-63.66,58.08-25.63,1.31-52.37-1.04-78.12,0-2.6.1-3.76-1.77-3.77-4.2v-195.71c.19-2.32.56-3.6,2.68-4.62,26.54,1.33,54.86-1.78,81.19,0ZM497.56,359.08c.81.2,1.56.4,2.42.46,11.64.91,29.51.64,41.3,0,17.9-.97,29.87-12.37,32.53-29.89-.24-26.85,2.01-55.38.52-82.12-1.06-19.13-12.96-33.03-32.61-34.23-11.71-.71-30.15-.91-41.74,0-.85.07-1.61.26-2.42.46v145.32Z"/>
        <path d="M418.15,184.16c1.12,1.22,2.47,1.72,2.24,3.73l-.05,197.88c-.23,1.52-1.36,2.64-2.88,2.87-8.85-.56-18.79.84-27.5.05-1.72-.16-2.83-.5-3.55-2.21l-.23-198.6c-.04-1.86,1.16-3,2.69-3.73h29.28Z"/>
      </g>
    </g>
  </g>
  <path d="M828.53,184.16h137.09v26.5c-.88,1.66-1.3,2.43-3.32,2.66l-99.41-.03-2.42.46v56.32l.67.66h68.32c1.51,0,3.21,3.08,3.35,4.62.43,4.67.57,16.71-.06,21.18-.18,1.24-1.57,3.79-2.84,3.79h-68.77l-.67.66v58.08l2.42.46,99.42-.05c1.79.08,2.5,1.85,3.3,3.12v23.41c-1.07,1.5-1.52,2.86-3.75,2.67l-133.81-.22c-1.34-.43-1.81-1.78-1.77-3.1l.25-199.45,1.99-1.77Z"/>
</svg>