<?xml version="1.0" encoding="UTF-8"?>
<svg id="Camada_1" data-name="Camada 1" xmlns="http://www.w3.org/2000/svg" viewBox="0 0 1080 572.7">
  <defs>
    <style>
      .cls-1 {
        fill: #e85556;
      }

      .cls-2 {
        fill: #3c3c3b;
      }
    </style>
  </defs>
  <g>
    <path class="cls-2" d="M85.1,504.55c3.44.64,13.39.86,16.6.86,17.39,0,30.27-6.01,39.08-18.46,6.87-9.44,10.74-22.33,10.74-35.43,0-30.06-18.47-48.74-48.52-48.74-4.3,0-14.89.43-18.97,1.29l1.07,100.48ZM61.49,412.87c0-13.1-.64-19.11-2.37-28.77,9.24-2.15,34-3.87,43.88-3.87,42.07,0,71.92,29.85,71.92,71.5,0,19.97-7.29,39.72-19.96,53.68-12.88,13.96-43.31,21.69-67.79,21.69-7.95,0-14.94-.65-26.75-2.15,1.5-16.53,1.72-21.26,1.72-31.77l-.64-80.3Z"/>
    <path class="cls-2" d="M208.87,524.3l.86-18.26.21-15.45.22-78.58c-.22-14.82-.44-24.27-.86-28.99l24.91-.21v1.28q-1.08,18.25-1.08,22.55v3.01l-.43,90.39v2.57c0,6.01.64,19.54,1.08,22.97h-24.91v-1.29Z"/>
    <path class="cls-2" d="M275.35,525.59c1.07-10.3,2.37-59.25,2.37-89.1,0-14.38-.21-31.13-.86-61.4l92.32,97.47-.64-89.1,23.18.21c-.21,9.45-.21,16.75-.42,21.04-.44,15.03-.86,24.91-.65,27.7.21,3.01.21,3.65.21,4.3l-.64,91.25-92.11-97.69.86,95.33h-23.62Z"/>
    <polygon class="cls-2" points="495 468.26 479.11 428.11 463.87 468.26 455.49 487.8 440.68 525.59 416.2 525.59 479.75 374.44 544.17 525.59 519.69 525.59 503.81 487.8 495 468.26"/>
    <path class="cls-2" d="M573.2,378.08l58.61,79.44,59.04-81.6c-.21,3.02-.21,4.95-.21,5.16,0,6.87.64,17.39,7.31,142.99l.21,1.51h-23.4l-3-88.89-40.79,55.18-39.3-53.04-2.57,86.75h-21.9l6.01-147.51Z"/>
    <path class="cls-2" d="M737.42,524.3l.86-18.26.21-15.45.22-78.58c-.22-14.82-.43-24.27-.86-28.99l24.9-.21v1.28q-1.07,18.25-1.07,22.55v3.01l-.44,90.39v2.57c0,6.01.65,19.54,1.09,22.97h-24.92v-1.29Z"/>
    <path class="cls-2" d="M861.85,404.27l-16.75-.21c-1.07.21-8.16.21-21.68.21l-24.05.43h-1.5l-.22-20.82,101.55-.21-68.49,122.38,65.31-.86.21,20.4h-101.39l66.99-121.32Z"/>
    <path class="cls-2" d="M929.2,525.59c1.07-12.24,1.5-17.17,1.29-25.33l.21-86.53c-.43-16.54-.85-24.05-1.72-29.84l90.82-.64-3.65,21.47c-3.65-.64-9.02-.86-24.26-1.07l-38.22.21.43,35.81h40.79l11.81-.43c5.37-.44,8.81-.44,9.24-.65.21,0,.64,0,1.5-.21l-4.08,22.97-59.69-.44-.21,43.65,28.12.21c16.32-.43,32.42-1.51,39.29-2.58l-4.3,23.4h-87.39Z"/>
  </g>
  <path class="cls-1" d="M758.81,46.77c4.96-6.84-.31-12.03-.31-12.03-18.83,22.85-40.59,46.58-65.54,70.83-2.77,2.69-12.23,11.74-22.18,20.76-7.87,7.14-16,14.08-21.5,18.82-25.62,22.05-55.76,44.09-77.75,58.78-18.2,12.16-29.48,18.98-29.48,18.98,0,0-46.51-12.95-86.7-18.92-21.21-3.15-42.93-2.35-63.96,1.71-18.95,3.66-40.62,8.96-55.41,22.11-1.32,1.17-2.76,2.58-4.12,4.1-4.03,4.52-7.66,10.21-9.83,16.41-2.72,7.8-2.99,12.75-2.99,18.79,0,8.45,3.36,19.1,8.51,26.52,5.7,8.22,13.18,14.61,22.09,18.33,1.89.79,4.6,1.85,7.82,2.57,3.96.87,8.11,1.68,10.48,2.08,11.61,1.94,21.11,2.49,29.73,2.49,56.69,0,102.31-30.85,147.19-61.88,3.03-2.1,6.05-4.25,9.08-6.38,1.27.26,12.7,2.94,27.83,6.88,13.23,3.44,28.99,8.11,43.42,12.71,10.61,3.38,20.43,6.84,27.74,9.47,9.47,3.4,20.22,7.39,31.08,11.78,13.11,5.3,26.26,10.96,37.45,16.1,17.79,8.17,30.64,14.76,30.64,14.76,1.1-6.33-3.79-9.4-3.79-9.4l-3.1-1.95c-8.27-5.1-20.44-12.16-29.83-17.35-18.54-10.27-37.52-19.81-55.54-27.98-10.53-4.77-20.66-9.15-29.99-12.94-30.53-12.41-52.54-19.3-52.54-19.3,105.84-81.72,176.51-179.99,181.47-186.83ZM417.28,280.98c-11.02,2.18-22.24,3.18-33.56,2.52-6.79-.4-13.23-1.32-18.2-6.46-5.11-5.3-6.74-13.16-4.19-20.06,3.31-8.97,12.95-13.63,21.42-16.53,14.29-4.9,29.3-6.08,44.3-6.27,19.8-.25,39.42,1.53,59.05,3.98,7.91,1.06,15.79,2.32,23.64,3.76-1.86,1.07-3.73,2.1-5.61,3.14-27.31,15.04-56.02,29.82-86.85,35.93Z"/>
</svg>