<?xml version="1.0" encoding="UTF-8"?>
<svg id="Camada_1" data-name="Camada 1" xmlns="http://www.w3.org/2000/svg" viewBox="0 0 1080 572.7">
  <defs>
    <style>
      .cls-1 {
        fill: #e4382e;
      }

      .cls-2 {
        fill: #1b2848;
      }
    </style>
  </defs>
  <path class="cls-2" d="M89.75,305.31c.15,6.28-.43,19.56-21.01,19.56-18.31,0-20.3-11.99-20.3-17.89,0-5.36.43-19.37,20.43-19.37,18.87,0,20.73,11.44,20.87,17.7M242.54,333.57c-55.12,0-99.14,60.09-99.14,60.09v-57.17h-33.67v103.84h33.67s50.31-76.68,93.99-76.68c41.26,0,44.96,76.68,44.96,76.68h33.67s-.43-106.75-73.49-106.75M502.85,400.82c-1.56,14.51-12.84,41.42-51.81,42.98-38.97,1.56-76.24-32.16-76.24-32.16,0,0-9.36,16.37-10.25,28.7h-33.77l.09-.32v-133.8h33.67v69.54c18.18-22.48,44.6-42.18,81.37-42.18,59.76,0,58.44,53.3,56.94,67.25M422.47,366.71c-17.67,7.03-31.55,22.87-31.55,22.87,0,0,16.39,15.97,35.1,20.9,16.52,4.36,42.97,2.8,45.05-22.16,1.95-23.38-31.04-28.61-48.6-21.61M52.26,440.34h33.67v-103.84h-33.67v103.84ZM960.67,366.8v-30.28h-31.98.02l-98.63-.02,3.47,30.3h80.27s-81.46,21.16-100.77,73.58h147.64v-30.28h-80.51c24.71-30.37,80.51-43.28,80.51-43.28M802.51,336.51h27.55c-19.33,52.42-100.77,73.58-100.77,73.58h80.26l3.47,30.3h-98.18.02l-32.42-.02h-33.76c-.9-12.31-10.25-28.7-10.25-28.7,0,0-37.28,33.71-76.24,32.16-38.97-1.56-50.26-28.48-51.81-42.99-1.5-13.94-2.82-67.25,56.94-67.25,84.4,0,114.31,103.77,115.12,106.69v-30.2s55.8-12.92,80.51-43.31h-80.51v-30.28h120.09-.02ZM622.28,389.58s-13.9-15.84-31.55-22.87c-17.56-6.99-50.54-1.77-48.6,21.61,2.09,24.98,28.52,26.52,45.05,22.16,18.7-4.93,35.08-20.9,35.08-20.9"/>
  <path class="cls-1" d="M1007.73,189.38h-136.64l-6.95-60.57c-38.63,104.82-201.5,147.12-201.5,147.12h160.47l6.95,60.57c38.63-104.82,201.5-147.12,201.5-147.12h-23.83Z"/>
</svg>