<?xml version="1.0" encoding="UTF-8"?>
<svg id="Camada_1" data-name="Camada 1" xmlns="http://www.w3.org/2000/svg" viewBox="0 0 1080 572.7">
  <path d="M833.88,333.57c6.49.84,2.82,5.14,2.15,9.56-1.78,11.62-2.61,23.42-4.3,35.04-.26,1.78-2.28,11.95-2.92,12.47l-393.39.54c-1.6-.04-3.25-1.66-3.64-3.2-1.03-3.99-.62-9.9-1.18-14.21-2.75-21.11-5.79-42.13-7.98-63.29-.3-2.94-1.06-5.88-1.14-8.84-4.67-.78-4.05,3.3-5.26,6.43-9.12,23.64-17.67,47.54-26.94,71.11-1.37,3.48-2.38,11.8-6.81,12-19.12-1.52-41.1,1.91-59.88-.03-5.98-.62-4.06-5.78-4.99-10.4-5.2-25.85-10.03-51.58-14.26-77.53l-3.83-9.56c-1.08,4.13-1.09,8.38-1.99,12.55-15.35,71.16-83.33,102.28-151.47,89.33-82.35-15.65-97.96-126.87-47.48-183.43,27.63-30.96,61.94-39.37,102.63-37.64,38.9,1.65,61.62,18.5,83.47,48.78.66.91,1.95,1.19,2.33,1.8.65,1.06.14,3.08,1.67,3.6,1.43-3.14-.55-5.94-.98-8.99-1.52-10.72-2.66-21.49-4.3-32.19-.3-1.97-2.4-6.96-1.31-8.46l5.15-1.12,55.01.32c1.79.8,2.87,6.65,3.26,8.71,5.81,30.29,10.78,62.71,15.06,93.26.12.85.6,4.94,1.35,4.9,3.96-2.47,3.32-5.61,4.56-9.11,10.75-30.39,19.76-62.28,31.03-92.11.83-2.2,2.16-5.78,4.85-5.99l56.2.29c2.7.83,2.98,6.06,3.32,8.65,4.12,31.55,7.08,64.34,12.11,95.64.35,2.2,1.6,5.91,4.23,3.22.69-.71,3.51-9.93,4.23-11.73,11.93-29.72,23.19-59.33,35.65-88.63,1.33-3.12.69-6.45,5.27-7.28l338.95-.07c3.88.47,4.44,2.05,6.16,5.25,7.02,13.12,13.08,28.37,19.71,41.86.82,1.66,3.44,9.54,5.05,9.81,2.51-.71,3.51-3.71,4.77-5.24,12.47-15.21,23.91-33.35,36.57-47.95,2.72-3.14,3.98-3.51,8.16-3.81,16.97-1.24,44.63-1.22,61.61,0,1.3.09,6.31.44,5.96,2.01-4.26,5.38-8.89,10.57-13.11,15.97-22.99,29.45-46.56,58.97-69.29,88.62-4.42,5.76-8.8,8.69-10.36,16.43-5.41,26.8-9.04,54.09-14.24,80.97-.36,1.86.07,8.68-2.72,8.68h-55.86c-1.64,0-.97-6.95-.85-8.26,2.23-23.49,5.85-47.19,8.55-70.69.55-4.79,2.95-11.98,2.23-16.51-.4-2.5-7.07-14.23-8.76-17.46-4.1-7.82-8.73-15.65-12.98-23.51-1-1.86-5.21-12.89-7.88-11.56l-65.82,88.69c-.69.62,0,2.28.57,2.28h74.1ZM613.86,335.86h65.55c.31,0,1.89-.85,2.25-1.17,1-.91,4.58-5.91,5.7-7.41,19.99-27.03,38.98-55.22,58.21-82.6,1.28-1.82,8.39-10.32,8.15-11.64-.31-1.72-5.4-2-7.02-2.1-15.51-.98-37.5-.88-53.06,0-1.58.09-7,.57-7.99,1.13l-70.04,97.56-2.53,4.9.78,1.34ZM514.96,360.94c-.61-2.91,1.71-2.89,2.87-4.27,3.61-4.27,6.57-9.39,10-13.95,25.84-34.35,52.18-68.5,77.45-103.27.66-.91,3.89-5.24,4.04-5.68.69-1.96-2.11-2.18-3.41-2.29-13.65-1.19-28.97.97-42.81,0-4.13.54-4.21,5.95-5.35,8.9-14.4,37.29-30.67,77.44-42.36,115.55-.25.82-3.74,4.71-.43,4.99ZM152.07,324.26c14.78,12.87,37.07,16.95,53.92,5.58,22.9-15.46,30.71-49.47,18.14-73.94-15.36-29.89-55.17-28.23-74.78-3.81-14.95,18.62-16.19,55.7,2.72,72.17Z"/>
</svg>