<?xml version="1.0" encoding="UTF-8"?>
<svg id="Camada_1" data-name="Camada 1" xmlns="http://www.w3.org/2000/svg" xmlns:xlink="http://www.w3.org/1999/xlink" viewBox="0 0 1080 572.7">
  <defs>
    <style>
      .cls-1 {
        fill: url(#linear-gradient);
      }

      .cls-1, .cls-2, .cls-3 {
        opacity: .4;
      }

      .cls-4 {
        fill: #8f9194;
      }

      .cls-5 {
        fill: url(#radial-gradient);
      }

      .cls-2 {
        fill: url(#linear-gradient-2);
      }

      .cls-6 {
        fill: #0a494c;
      }

      .cls-3 {
        fill: url(#linear-gradient-3);
      }
    </style>
    <linearGradient id="linear-gradient" x1="324.57" y1="372.76" x2="397.49" y2="299.84" gradientUnits="userSpaceOnUse">
      <stop offset="0" stop-color="#000"/>
      <stop offset="1" stop-color="#2581c4" stop-opacity="0"/>
    </linearGradient>
    <radialGradient id="radial-gradient" cx="-224.11" cy="3424.46" fx="-224.11" fy="3424.46" r="173.07" gradientTransform="translate(-1283.7 -2757.71) rotate(-29.66)" gradientUnits="userSpaceOnUse">
      <stop offset="0" stop-color="#fff"/>
      <stop offset=".3" stop-color="#fcfcfc"/>
      <stop offset=".47" stop-color="#f4f4f4"/>
      <stop offset=".62" stop-color="#e5e6e6"/>
      <stop offset=".75" stop-color="#d1d2d3"/>
      <stop offset=".87" stop-color="#b7b8b9"/>
      <stop offset=".98" stop-color="#97999b"/>
      <stop offset="1" stop-color="#909294"/>
    </radialGradient>
    <linearGradient id="linear-gradient-2" x1="-9156.02" y1="-4067.31" x2="-9083.1" y2="-4140.24" gradientTransform="translate(-7781.9 6498.91) rotate(118.24)" xlink:href="#linear-gradient"/>
    <linearGradient id="linear-gradient-3" x1="-8490.54" y1="6422.98" x2="-8417.62" y2="6350.05" gradientTransform="translate(-9583.92 -3890.77) rotate(-120.29)" xlink:href="#linear-gradient"/>
  </defs>
  <g>
    <path class="cls-6" d="M320.68,261.45c-9.19,14.62-14.63,31.86-14.95,50.38-.88,53.81,41.9,98.18,95.64,99.32,9.19-14.61,14.63-31.85,14.94-50.38.9-53.82-41.88-98.16-95.63-99.32Z"/>
    <path class="cls-1" d="M320.68,261.45c-9.19,14.62-14.63,31.86-14.95,50.38-.88,53.81,41.9,98.18,95.64,99.32,9.19-14.61,14.63-31.85,14.94-50.38.9-53.82-41.88-98.16-95.63-99.32Z"/>
    <path class="cls-6" d="M233.53,407.36c-8.51-15.03-21.11-28-37.27-37.05-46.95-26.29-106.3-9.65-132.78,37.12,8.5,15.03,21.1,27.99,37.27,37.04,46.96,26.29,106.29,9.66,132.79-37.11Z"/>
    <path class="cls-5" d="M320.38,261.98c16.53-29.01,17.79-65.73.07-96.84-17.54-30.82-49.31-48.44-82.34-49.35,26.37,46.84,9.98,106.24-36.79,132.87-16.1,9.18-33.72,13.27-50.97,12.79,0,0,0,.01.01.02-34.87-.64-68.93,17.43-87.16,49.98-17.32,30.94-16.01,67.24.27,95.99,26.48-46.77,85.83-63.41,132.78-37.12,16.17,9.05,28.76,22.02,37.27,37.05,0-.01.02-.02.02-.05,16.53,29.11,47.56,48.98,83.44,49.57,35.46.59,66.8-17.77,84.4-45.73-53.74-1.14-96.52-45.51-95.64-99.32.31-18.3,5.64-35.35,14.64-49.85Z"/>
    <path class="cls-6" d="M187.14,128.57c-46.76,26.63-63.16,86.04-36.79,132.87,17.26.48,34.87-3.61,50.97-12.79,46.76-26.63,63.16-86.03,36.79-132.87-17.26-.48-34.86,3.61-50.97,12.79Z"/>
    <path class="cls-2" d="M233.53,407.27c-8.53-15.01-21.13-27.96-37.31-37-46.99-26.24-106.31-9.55-132.75,37.25,8.52,15.02,21.13,27.96,37.31,37,46.98,26.24,106.3,9.55,132.75-37.25Z"/>
    <path class="cls-3" d="M149.94,261.2c17.26.56,34.89-3.43,51.04-12.5,46.92-26.38,63.65-85.68,37.54-132.67-17.25-.58-34.88,3.42-51.04,12.5-46.91,26.37-63.64,85.67-37.53,132.67Z"/>
  </g>
  <g>
    <path class="cls-6" d="M510.09,273.19l37.53-103.58c.56-1.42,2.63-4.72,6.85-4.72h55.46c4.13,0,6.19,3.3,6.75,4.72l37.53,103.58,34.43-103.49c2.07-5.1,6.86-4.82,6.86-4.82h51.23c-3.28,0-6.94,1.8-10.32,12.09l-46.26,139.94c-1.78,2.92-3.18,4.06-7.41,4.06h-57.8c-2.82,0-4.51-2.08-5.92-4.35l-36.87-101.69-36.88,101.69c-1.41,2.27-3.1,4.35-5.91,4.35h-57.8c-4.22,0-5.63-1.13-7.41-4.06l-46.26-139.94c-3.38-10.29-7.04-12.09-10.32-12.09h51.23s4.79-.28,6.85,4.82l34.44,103.49ZM971.75,313.32c0,5.47-4.88,7.64-7.5,7.64h50.2c3.38,0,7.6-2.64,7.6-7.64v-140.8c0-5.57,4.88-7.65,7.22-7.65h-49.92c-3.38,0-7.6,2.64-7.6,7.65v140.8ZM818.9,313.32c0,5.47-4.88,7.64-7.51,7.64h50.2c3.38,0,7.6-2.64,7.6-7.64v-41.18l27.4,45.42c1.32,1.89,3.28,3.4,6.29,3.4h59.58c-2.72-.09-4.88-1.13-6.19-3.21l-48.51-73.94c-2.07-3.02-1.97-6.04.09-9.16l48.51-66.76c1.79-2.07,3.85-2.92,6.1-3.02h-59.12c-2.44,0-4.69,1.04-6.38,3.3l-27.77,38.34v-34c0-5.57,4.88-7.65,7.23-7.65h-49.92c-3.38,0-7.6,2.64-7.6,7.65v140.8ZM754.34,313.32c0,5.47-4.98,7.64-7.6,7.64h50.2c3.38,0,7.6-2.64,7.6-7.64v-140.8c0-5.57,4.88-7.65,7.32-7.65h-49.92c-3.38,0-7.6,2.64-7.6,7.65v140.8Z"/>
    <path class="cls-4" d="M483.06,405.18v-10.86c1.97,1.7,4.03,2.93,6.38,3.69,2.25.85,4.51,1.22,6.85,1.22,1.41,0,2.63-.09,3.57-.38,1.03-.19,1.88-.57,2.63-1.04.65-.38,1.13-.94,1.5-1.51.27-.57.46-1.23.46-1.99,0-.94-.28-1.7-.75-2.45-.56-.75-1.32-1.51-2.26-2.07-.94-.66-1.96-1.23-3.28-1.8-1.31-.66-2.62-1.23-4.12-1.88-3.76-1.52-6.57-3.5-8.45-5.77-1.78-2.26-2.72-5.01-2.72-8.22,0-2.55.47-4.72,1.51-6.51,1.04-1.79,2.34-3.31,4.13-4.44,1.69-1.23,3.76-2.07,6-2.64,2.25-.57,4.7-.85,7.23-.85s4.79.19,6.66.47c1.97.28,3.76.85,5.35,1.42v10.1c-.75-.57-1.69-1.04-2.63-1.51-.94-.38-1.88-.76-2.91-1.04-1.03-.28-1.97-.47-3-.57-1.03-.19-1.97-.28-2.82-.28-1.22,0-2.34.19-3.38.38-1.03.28-1.87.56-2.53,1.04-.75.38-1.22.94-1.69,1.51-.38.56-.56,1.22-.56,1.98,0,.85.28,1.61.65,2.17.47.66,1.03,1.32,1.88,1.89.76.56,1.69,1.13,2.82,1.69,1.13.48,2.35,1.04,3.75,1.71,1.97.75,3.66,1.6,5.26,2.54,1.5.95,2.82,1.99,3.95,3.12,1.03,1.13,1.88,2.45,2.53,3.96.57,1.42.85,3.12.85,5.1,0,2.74-.47,5-1.5,6.8-1.04,1.89-2.44,3.31-4.23,4.44-1.69,1.23-3.75,1.98-6,2.45-2.35.56-4.78.76-7.42.76s-5.16-.19-7.5-.67c-2.35-.47-4.51-1.13-6.19-1.97h0ZM566.2,406.97h-10.79v-48.44h10.79v48.44ZM606.55,405.18v-10.86c1.96,1.7,4.03,2.93,6.38,3.69,2.25.85,4.5,1.22,6.84,1.22,1.41,0,2.63-.09,3.58-.38,1.02-.19,1.87-.57,2.62-1.04.66-.38,1.13-.94,1.5-1.51.38-.57.47-1.23.47-1.99,0-.94-.28-1.7-.76-2.45-.56-.75-1.31-1.51-2.24-2.07-.94-.66-1.97-1.23-3.29-1.8-1.31-.66-2.63-1.23-4.12-1.88-3.76-1.52-6.57-3.5-8.44-5.77-1.78-2.26-2.72-5.01-2.72-8.22,0-2.55.47-4.72,1.51-6.51,1.03-1.79,2.34-3.31,4.13-4.44,1.69-1.23,3.76-2.07,6-2.64,2.25-.57,4.69-.85,7.23-.85s4.79.19,6.67.47c1.96.28,3.75.85,5.34,1.42v10.1c-.75-.57-1.59-1.04-2.62-1.51-.94-.38-1.88-.76-2.92-1.04-1.02-.28-1.96-.47-3-.57-1.03-.19-1.96-.28-2.82-.28-1.21,0-2.34.19-3.38.38-1.03.28-1.88.56-2.53,1.04-.75.38-1.22.94-1.69,1.51-.38.56-.47,1.22-.47,1.98,0,.85.19,1.61.56,2.17.46.66,1.03,1.32,1.87,1.89.75.56,1.69,1.13,2.82,1.69,1.12.48,2.34,1.04,3.85,1.71,1.88.75,3.56,1.6,5.16,2.54,1.5.95,2.82,1.99,3.94,3.12,1.12,1.13,1.88,2.45,2.53,3.96.56,1.42.84,3.12.84,5.1,0,2.74-.47,5-1.5,6.8-1.03,1.89-2.44,3.31-4.22,4.44-1.69,1.23-3.75,1.98-6,2.45-2.35.56-4.79.76-7.42.76s-5.16-.19-7.5-.67c-2.35-.47-4.51-1.13-6.19-1.97h0ZM712.67,367.4h-13.7v39.57h-10.88v-39.57h-13.7v-8.88h38.28v8.88ZM779.67,406.97h-28.89v-48.44h27.77v8.88h-16.9v10.76h15.67v8.88h-15.67v11.14h18.02v8.78ZM867.88,406.97h-9.76v-28.99c0-3.12.19-6.61.47-10.39h-.28c-.19.75-.38,1.51-.56,2.17-.19.75-.38,1.42-.56,2.07-.28.67-.48,1.23-.66,1.71-.19.56-.28.94-.47,1.23l-9.1,17.66h-7.6l-8.82-17.66c-.09-.28-.28-.57-.38-1.04-.19-.38-.37-.94-.56-1.51-.19-.66-.38-1.33-.56-2.08-.19-.85-.29-1.6-.47-2.55h-.28c.19,2.17.28,4.06.38,5.85,0,1.8.09,3.3.09,4.53v28.99h-9.85v-48.44h13.32l8.54,16.81c.19.56.47,1.13.75,1.79.19.57.47,1.23.65,1.8.28.57.48,1.23.66,1.79.19.57.38,1.04.47,1.61h.1c.19-.56.28-1.04.47-1.7.19-.65.38-1.23.47-1.88.19-.66.38-1.23.66-1.8.19-.66.38-1.13.57-1.6l8.73-16.81h13.6v48.44ZM952.79,406.97h-11.82l-3.38-10.77h-17.17l-3.38,10.77h-11.73l17.55-48.44h12.85l17.08,48.44ZM935.06,387.8l-5.17-16.24c-.37-1.23-.65-2.64-.84-4.35h-.19c-.19,1.42-.47,2.83-.85,4.16l-5.25,16.43h12.29ZM988.17,405.18v-10.86c1.97,1.7,4.03,2.93,6.37,3.69,2.26.85,4.6,1.22,6.85,1.22,1.41,0,2.63-.09,3.66-.38.93-.19,1.78-.57,2.53-1.04.66-.38,1.22-.94,1.5-1.51.38-.57.47-1.23.47-1.99,0-.94-.19-1.7-.75-2.45-.57-.75-1.32-1.51-2.25-2.07-.85-.66-1.97-1.23-3.28-1.8-1.22-.66-2.63-1.23-4.13-1.88-3.75-1.52-6.57-3.5-8.45-5.77-1.78-2.26-2.72-5.01-2.72-8.22,0-2.55.47-4.72,1.5-6.51,1.04-1.79,2.34-3.31,4.13-4.44,1.69-1.23,3.75-2.07,6-2.64,2.25-.57,4.69-.85,7.23-.85s4.79.19,6.76.47c1.88.28,3.65.85,5.35,1.42v10.1c-.84-.57-1.69-1.04-2.63-1.51-1.03-.38-1.97-.76-3-1.04-.94-.28-1.98-.47-3-.57-1.03-.19-1.97-.28-2.82-.28-1.22,0-2.34.19-3.38.38-1.03.28-1.88.56-2.53,1.04-.66.38-1.22.94-1.59,1.51-.38.56-.57,1.22-.57,1.98,0,.85.19,1.61.57,2.17.47.66,1.03,1.32,1.87,1.89.75.56,1.69,1.13,2.82,1.69,1.13.48,2.44,1.04,3.85,1.71,1.88.75,3.66,1.6,5.16,2.54,1.51.95,2.81,1.99,3.94,3.12,1.12,1.13,1.97,2.45,2.53,3.96.56,1.42.84,3.12.84,5.1,0,2.74-.46,5-1.51,6.8-1.03,1.89-2.44,3.31-4.12,4.44-1.78,1.23-3.85,1.98-6.1,2.45-2.35.56-4.79.76-7.42.76s-5.07-.19-7.5-.67c-2.35-.47-4.41-1.13-6.19-1.97h0Z"/>
  </g>
</svg>