<?xml version="1.0" encoding="UTF-8"?>
<svg id="Camada_1" data-name="Camada 1" xmlns="http://www.w3.org/2000/svg" viewBox="0 0 200 39.97">
  <defs>
    <style>
      .cls-1 {
        fill: #151717;
      }

      .cls-2 {
        fill: #ff4800;
      }
    </style>
  </defs>
  <path class="cls-1" d="M7.37,15.08c-.04.28-.06.57-.06.86,0,.66.1,1.29.29,1.89.78,2.44,3.02,4.23,5.69,4.33h9.39s2.73,0,2.73,0h.07c.47.01.87.25,1.11.62.14.22.23.48.23.76,0,.76-.62,1.38-1.38,1.38H7.28v5.36h21.32c3.14,0,5.74-2.33,6.16-5.36.04-.28.06-.57.06-.86,0-.66-.1-1.29-.29-1.89-.8-2.5-3.13-4.31-5.89-4.33h-9.18s-1.73,0-1.73,0c-.76,0-1.37-.61-1.37-1.37s.61-1.37,1.37-1.37h17.11v-5.36H13.53c-3.14,0-5.74,2.33-6.16,5.36Z"/>
  <path class="cls-1" d="M184.6,12.98l-1.53-3.26h-10.91l-1.53,3.27-8.12,17.27h7.56l2.55-5.42h10l2.55,5.42h7.56l-8.12-17.28ZM173.91,22.09l3.29-7.01h.82l3.29,7.01h-7.41Z"/>
  <polygon class="cls-1" points="36.71 15.07 39.95 15.07 39.95 15.07 46.92 15.07 46.92 30.26 53.98 30.26 53.98 15.07 60.95 15.07 60.95 15.07 64.19 15.07 64.19 9.72 36.71 9.72 36.71 15.07"/>
  <polygon class="cls-2" points="72.5 9.72 72.43 9.72 67.31 9.72 67.31 9.72 66.07 9.72 66.07 30.25 67.31 30.25 67.31 30.26 67.31 30.26 130.36 30.26 130.36 24.9 72.5 24.9 72.5 22.16 130.36 22.16 130.36 17.82 72.5 17.82 72.5 15.07 130.36 15.07 130.36 9.72 72.5 9.72 72.5 9.72"/>
  <path class="cls-1" d="M151.73,9.72h-19.5v20.54h19.5c6.63,0,12.01-4.32,12.01-9.65v-1.25c0-5.33-5.38-9.65-12.01-9.65ZM155.83,23.44c-.88.88-2.1,1.43-3.45,1.43h-14.03v-9.76h14.03c2.7,0,4.88,2.19,4.88,4.88,0,1.35-.55,2.57-1.43,3.45Z"/>
</svg>