<?xml version="1.0" encoding="UTF-8"?>
<svg id="Camada_1" data-name="Camada 1" xmlns="http://www.w3.org/2000/svg" viewBox="0 0 1080 216.2">
  <defs>
    <style>
      .cls-1 {
        fill: #fff;
      }

      .cls-2 {
        fill: #ff4800;
      }
    </style>
  </defs>
  <path class="cls-1" d="M20.38,76.82c-.22,1.78-.33,3.61-.33,5.46,0,4.19.56,8.23,1.6,12.02,4.27,15.55,16.6,26.94,31.3,27.58h51.65s15.05,0,15.05,0h.39c2.56.07,4.8,1.62,6.12,3.93.79,1.39,1.26,3.05,1.26,4.83,0,4.84-3.39,8.78-7.57,8.78H19.91v34.16h117.31c17.29,0,31.59-14.86,33.89-34.16.22-1.79.33-3.62.33-5.48,0-4.2-.56-8.25-1.61-12.06-4.38-15.93-17.22-27.48-32.41-27.58h-50.52s-9.51,0-9.51,0c-4.17,0-7.55-3.91-7.55-8.74s3.38-8.74,7.55-8.74h94.15v-34.18H54.28c-17.3,0-31.6,14.87-33.9,34.18Z"/>
  <path class="cls-1" d="M1015.41,63.42l-8.42-20.76h-60.05l-8.44,20.82-44.66,110.09h41.6l14.01-34.53h55.04l14.01,34.53h41.6l-44.68-110.15ZM956.56,121.49l18.13-44.7h4.54l18.13,44.7h-40.8Z"/>
  <polygon class="cls-1" points="181.84 76.76 209.54 76.76 209.54 76.77 247.89 76.77 247.89 173.57 286.72 173.57 286.72 76.77 325.07 76.77 325.07 76.76 352.77 76.76 352.77 42.63 181.84 42.63 181.84 76.76"/>
  <polygon class="cls-2" points="398.46 42.63 398.11 42.63 369.93 42.63 369.92 42.63 363.07 42.63 363.07 173.54 369.92 173.54 369.92 173.56 369.92 173.56 716.93 173.56 716.93 139.41 398.46 139.41 398.46 121.97 716.93 121.97 716.93 94.29 398.46 94.29 398.46 76.77 716.93 76.77 716.93 42.63 398.46 42.63 398.46 42.63"/>
  <path class="cls-1" d="M834.54,42.64h-107.31v130.92h107.31c36.51,0,66.1-27.53,66.1-61.49v-7.94c0-33.96-29.59-61.5-66.1-61.5ZM857.08,130.1c-4.86,5.63-11.58,9.11-19,9.11h-77.22v-62.24h77.22c14.84,0,26.87,13.93,26.87,31.12,0,8.59-3.01,16.37-7.87,22.01Z"/>
</svg>